<mxfile host="app.diagrams.net" modified="2024-02-18T05:36:18.374Z" agent="Mozilla/5.0 (Windows NT 10.0; Win64; x64) AppleWebKit/537.36 (KHTML, like Gecko) Chrome/121.0.0.0 Safari/537.36" etag="ipbgHsBRXxe7mcV5aVI0" version="23.1.5" type="github">
  <diagram id="prtHgNgQTEPvFCAcTncT" name="Page-1">
    <mxGraphModel dx="1434" dy="746" grid="1" gridSize="10" guides="1" tooltips="1" connect="1" arrows="1" fold="1" page="1" pageScale="1" pageWidth="1654" pageHeight="2336" math="0" shadow="0">
      <root>
        <mxCell id="0" />
        <mxCell id="1" parent="0" />
        <mxCell id="E1q4cWO9czZsZP-2fBdB-1" value="&lt;h3&gt;&lt;font style=&quot;font-size: 14px;&quot;&gt;메인 페이지&lt;/font&gt;&lt;/h3&gt;" style="rounded=1;whiteSpace=wrap;html=1;fillColor=#cce5ff;strokeColor=#36393d;" vertex="1" parent="1">
          <mxGeometry x="759" y="80" width="136" height="60" as="geometry" />
        </mxCell>
        <mxCell id="E1q4cWO9czZsZP-2fBdB-7" value="" style="endArrow=none;html=1;rounded=0;" edge="1" parent="1">
          <mxGeometry width="50" height="50" relative="1" as="geometry">
            <mxPoint x="125" y="200" as="sourcePoint" />
            <mxPoint x="1400" y="200" as="targetPoint" />
          </mxGeometry>
        </mxCell>
        <mxCell id="E1q4cWO9czZsZP-2fBdB-9" value="" style="endArrow=none;html=1;rounded=0;" edge="1" parent="1">
          <mxGeometry width="50" height="50" relative="1" as="geometry">
            <mxPoint x="826" y="200" as="sourcePoint" />
            <mxPoint x="826" y="140" as="targetPoint" />
          </mxGeometry>
        </mxCell>
        <mxCell id="E1q4cWO9czZsZP-2fBdB-10" value="" style="endArrow=none;html=1;rounded=0;" edge="1" parent="1">
          <mxGeometry width="50" height="50" relative="1" as="geometry">
            <mxPoint x="125" y="340" as="sourcePoint" />
            <mxPoint x="125" y="200" as="targetPoint" />
          </mxGeometry>
        </mxCell>
        <mxCell id="E1q4cWO9czZsZP-2fBdB-11" value="" style="endArrow=none;html=1;rounded=0;" edge="1" parent="1">
          <mxGeometry width="50" height="50" relative="1" as="geometry">
            <mxPoint x="278" y="260" as="sourcePoint" />
            <mxPoint x="278" y="200" as="targetPoint" />
          </mxGeometry>
        </mxCell>
        <mxCell id="E1q4cWO9czZsZP-2fBdB-13" value="" style="endArrow=none;html=1;rounded=0;" edge="1" parent="1">
          <mxGeometry width="50" height="50" relative="1" as="geometry">
            <mxPoint x="478" y="260" as="sourcePoint" />
            <mxPoint x="478" y="200" as="targetPoint" />
          </mxGeometry>
        </mxCell>
        <mxCell id="E1q4cWO9czZsZP-2fBdB-14" value="" style="endArrow=none;html=1;rounded=0;" edge="1" parent="1">
          <mxGeometry width="50" height="50" relative="1" as="geometry">
            <mxPoint x="720" y="260" as="sourcePoint" />
            <mxPoint x="720" y="200" as="targetPoint" />
          </mxGeometry>
        </mxCell>
        <mxCell id="E1q4cWO9czZsZP-2fBdB-16" value="" style="endArrow=none;html=1;rounded=0;" edge="1" parent="1">
          <mxGeometry width="50" height="50" relative="1" as="geometry">
            <mxPoint x="960" y="260" as="sourcePoint" />
            <mxPoint x="960" y="200" as="targetPoint" />
          </mxGeometry>
        </mxCell>
        <mxCell id="E1q4cWO9czZsZP-2fBdB-19" value="&lt;h3&gt;&lt;font style=&quot;font-size: 14px;&quot;&gt;로그인&lt;/font&gt;&lt;/h3&gt;" style="rounded=1;whiteSpace=wrap;html=1;fillColor=#cce5ff;strokeColor=#36393d;" vertex="1" parent="1">
          <mxGeometry x="70" y="260" width="110" height="50" as="geometry" />
        </mxCell>
        <mxCell id="E1q4cWO9czZsZP-2fBdB-20" value="&lt;h3&gt;&lt;font style=&quot;font-size: 14px;&quot;&gt;회원가입&lt;/font&gt;&lt;/h3&gt;" style="rounded=1;whiteSpace=wrap;html=1;fillColor=#cce5ff;strokeColor=#36393d;" vertex="1" parent="1">
          <mxGeometry x="220" y="260" width="110" height="50" as="geometry" />
        </mxCell>
        <mxCell id="E1q4cWO9czZsZP-2fBdB-21" value="&lt;h3&gt;&lt;font style=&quot;font-size: 14px;&quot;&gt;ㅇ&lt;/font&gt;&lt;/h3&gt;" style="rounded=1;whiteSpace=wrap;html=1;fillColor=#cce5ff;strokeColor=#36393d;" vertex="1" parent="1">
          <mxGeometry x="420" y="260" width="110" height="50" as="geometry" />
        </mxCell>
        <mxCell id="E1q4cWO9czZsZP-2fBdB-24" value="&lt;h3&gt;&lt;font style=&quot;font-size: 14px;&quot;&gt;회원가입&lt;/font&gt;&lt;/h3&gt;" style="rounded=1;whiteSpace=wrap;html=1;fillColor=#cce5ff;strokeColor=#36393d;" vertex="1" parent="1">
          <mxGeometry x="670" y="260" width="110" height="50" as="geometry" />
        </mxCell>
        <mxCell id="E1q4cWO9czZsZP-2fBdB-25" value="&lt;h3&gt;&lt;font style=&quot;font-size: 14px;&quot;&gt;회원가입&lt;/font&gt;&lt;/h3&gt;" style="rounded=1;whiteSpace=wrap;html=1;fillColor=#cce5ff;strokeColor=#36393d;" vertex="1" parent="1">
          <mxGeometry x="910" y="260" width="110" height="50" as="geometry" />
        </mxCell>
        <mxCell id="E1q4cWO9czZsZP-2fBdB-34" value="" style="endArrow=none;html=1;rounded=0;" edge="1" parent="1">
          <mxGeometry width="50" height="50" relative="1" as="geometry">
            <mxPoint x="1160" y="260" as="sourcePoint" />
            <mxPoint x="1160" y="200" as="targetPoint" />
          </mxGeometry>
        </mxCell>
        <mxCell id="E1q4cWO9czZsZP-2fBdB-35" value="&lt;h3&gt;&lt;font style=&quot;font-size: 14px;&quot;&gt;회원가입&lt;/font&gt;&lt;/h3&gt;" style="rounded=1;whiteSpace=wrap;html=1;fillColor=#cce5ff;strokeColor=#36393d;" vertex="1" parent="1">
          <mxGeometry x="1100" y="260" width="110" height="50" as="geometry" />
        </mxCell>
        <mxCell id="E1q4cWO9czZsZP-2fBdB-36" value="" style="endArrow=none;html=1;rounded=0;" edge="1" parent="1">
          <mxGeometry width="50" height="50" relative="1" as="geometry">
            <mxPoint x="1400" y="260" as="sourcePoint" />
            <mxPoint x="1400" y="200" as="targetPoint" />
          </mxGeometry>
        </mxCell>
        <mxCell id="E1q4cWO9czZsZP-2fBdB-37" value="&lt;h3&gt;&lt;font style=&quot;font-size: 14px;&quot;&gt;회원가입&lt;/font&gt;&lt;/h3&gt;" style="rounded=1;whiteSpace=wrap;html=1;fillColor=#cce5ff;strokeColor=#36393d;" vertex="1" parent="1">
          <mxGeometry x="1347" y="260" width="110" height="50" as="geometry" />
        </mxCell>
      </root>
    </mxGraphModel>
  </diagram>
</mxfile>
